<?xml version="1.0" encoding="UTF-8" standalone="no"?>
<!-- Created with Inkscape (http://www.inkscape.org/) -->

<svg
   xmlns:dc="http://purl.org/dc/elements/1.1/"
   xmlns:cc="http://creativecommons.org/ns#"
   xmlns:rdf="http://www.w3.org/1999/02/22-rdf-syntax-ns#"
   xmlns:svg="http://www.w3.org/2000/svg"
   xmlns="http://www.w3.org/2000/svg"
   xmlns:xlink="http://www.w3.org/1999/xlink"
   xmlns:sodipodi="http://sodipodi.sourceforge.net/DTD/sodipodi-0.dtd"
   xmlns:inkscape="http://www.inkscape.org/namespaces/inkscape"
   width="64"
   version="1.1"
   height="64"
   id="svg2"
   inkscape:version="0.91 r13725"
   sodipodi:docname="computer-laptop.svg">
  <sodipodi:namedview
     pagecolor="#ffffff"
     bordercolor="#666666"
     borderopacity="1"
     objecttolerance="10"
     gridtolerance="10"
     guidetolerance="10"
     inkscape:pageopacity="0"
     inkscape:pageshadow="2"
     inkscape:window-width="1920"
     inkscape:window-height="1007"
     id="namedview126"
     showgrid="true"
     inkscape:snap-bbox="true"
     inkscape:bbox-nodes="true"
     inkscape:zoom="11.313709"
     inkscape:cx="44.614119"
     inkscape:cy="22.745524"
     inkscape:window-x="0"
     inkscape:window-y="0"
     inkscape:window-maximized="1"
     inkscape:current-layer="layer1">
    <inkscape:grid
       type="xygrid"
       id="grid4254" />
  </sodipodi:namedview>
  <defs
     id="defs5455">
    <linearGradient
       inkscape:collect="always"
       id="linearGradient5002">
      <stop
         style="stop-color:#2e5d89"
         id="stop5004" />
      <stop
         offset="1"
         style="stop-color:#1b92f4"
         id="stop5006" />
    </linearGradient>
    <linearGradient
       inkscape:collect="always"
       id="linearGradient4352"
       xlink:href="#linearGradient5002"
       y1="512.79797"
       y2="527.79797"
       x1="400.57144"
       x2="415.57144"
       gradientUnits="userSpaceOnUse"
       gradientTransform="matrix(1.1818182 0 0 1.1818182 -74.28571 -95.23599)" />
    <linearGradient
       inkscape:collect="always"
       id="linearGradient4159">
      <stop
         style="stop-color:#2a2c2f"
         id="stop4161" />
      <stop
         offset="1"
         style="stop-color:#424649"
         id="stop4163" />
    </linearGradient>
    <linearGradient
       inkscape:collect="always"
       xlink:href="#linearGradient4159"
       id="linearGradient4250"
       y1="544.66284"
       x1="409.49451"
       y2="503.798"
       x2="409.57144"
       gradientUnits="userSpaceOnUse"
       gradientTransform="matrix(1.0833331 0 0 1.027779 -410.61896 -509.79302)" />
    <linearGradient
       inkscape:collect="always"
       xlink:href="#linearGradient5002"
       id="linearGradient4352-8"
       y1="512.79797"
       x1="400.57144"
       y2="527.79797"
       gradientUnits="userSpaceOnUse"
       x2="415.57144"
       gradientTransform="matrix(1 0 0 1 57.62496 10.500083)" />
    <linearGradient
       inkscape:collect="always"
       xlink:href="#linearGradient4143"
       id="linearGradient4531"
       y1="544.66284"
       x1="409.49451"
       y2="503.798"
       gradientUnits="userSpaceOnUse"
       x2="409.57144"
       gradientTransform="matrix(1.0833331 0 0 1.027779 -34.04754 -14.995041)" />
    <linearGradient
       inkscape:collect="always"
       xlink:href="#linearGradient4159"
       id="linearGradient4592"
       y1="540.79797"
       y2="536.79797"
       x2="0"
       gradientUnits="userSpaceOnUse" />
    <linearGradient
       inkscape:collect="always"
       id="linearGradient4143">
      <stop
         style="stop-color:#197cf1"
         id="stop4145" />
      <stop
         offset="1"
         style="stop-color:#20bcfa"
         id="stop4147" />
    </linearGradient>
    <linearGradient
       inkscape:collect="always"
       xlink:href="#linearGradient4697"
       id="linearGradient4249"
       gradientUnits="userSpaceOnUse"
       gradientTransform="matrix(0.99999968,0,0,1.0083327,1.4e-4,-4.19802)"
       x1="419.33005"
       y1="536.52533"
       x2="419.33005"
       y2="498.13367" />
    <linearGradient
       inkscape:collect="always"
       id="linearGradient4697">
      <stop
         style="stop-color:#1abc9c;stop-opacity:1"
         id="stop4699" />
      <stop
         offset="1"
         style="stop-color:#52b2ee;stop-opacity:1"
         id="stop4701" />
    </linearGradient>
  </defs>
  <metadata
     id="metadata5458">
    <rdf:RDF>
      <cc:Work
         rdf:about="">
        <dc:format>image/svg+xml</dc:format>
        <dc:type
           rdf:resource="http://purl.org/dc/dcmitype/StillImage" />
        <dc:title />
      </cc:Work>
    </rdf:RDF>
  </metadata>
  <g
     inkscape:label="Capa 1"
     inkscape:groupmode="layer"
     id="layer1"
     transform="matrix(1 0 0 1 -376.57144 -491.79797)">
    <path
       cx="408.57144"
       cy="519.79797"
       inkscape:connector-curvature="0"
       style="fill:url(#linearGradient4352);stroke-linecap:round;stroke-linejoin:round;stroke-width:2"
       id="circle4309-6"
       r="9.999989" />
    <g
       id="g4853"
       transform="matrix(1 0 0 1 0 2.00002)">
      <path
         inkscape:connector-curvature="0"
         style="stroke-opacity:0.550265;fill:url(#linearGradient4250);stroke-width:2.8"
         id="rect4173"
         d="M 6,8 6,45 58,45 58,8 Z"
         transform="matrix(1 0 0 1 376.57144 491.79797)" />
      <rect
         width="47.999989"
         x="384.57144"
         y="530.79797"
         height="3.999983"
         style="fill:#ffffff;fill-opacity:0.784314"
         id="rect4267" />
      <circle
         cx="429.57144"
         cy="532.79791"
         style="fill:#4d4d4d"
         r="1"
         id="path4166" />
      <path
         inkscape:connector-curvature="0"
         style="fill:#4d4d4d"
         id="rect4183"
         d="m 386.57143,531.79798 0,1 1,0 0,-1 z m 1,1 0,1 1,0 0,-1 z" />
      <rect
         width="19.999987"
         x="386.57144"
         y="503.798"
         height="16.999994"
         style="fill:#ffffff;fill-opacity:0.784314"
         id="rect3432" />
      <path
         inkscape:connector-curvature="0"
         style="fill:#3580ca"
         id="rect4160"
         d="m 387.57143,504.79798 0,4 4.16667,0 0,-3 -1.04167,0 -1.04166,-1 z" />
      <path
         inkscape:connector-curvature="0"
         style="fill:#ff9955"
         id="rect4235"
         d="m 395.57143,504.79798 0,5 4,0 0,-3 -2,-2 z" />
      <path
         inkscape:connector-curvature="0"
         style="fill:#d45500;fill-rule:evenodd"
         id="path4237"
         d="m 397.57143,504.79798 2,2 -2,0 z" />
      <path
         inkscape:connector-curvature="0"
         style="fill:#7aabdc"
         id="rect4272"
         d="m 387.57143,505.79798 5,0 0,4 -5,0 z" />
      <path
         inkscape:connector-curvature="0"
         style="fill:#71c837"
         id="path4275"
         d="m 401.57143,504.79798 0,5 4,0 0,-3 -2,-2 z" />
      <path
         inkscape:connector-curvature="0"
         style="fill:#447821;fill-rule:evenodd"
         id="path4277"
         d="m 403.57143,504.79798 2,2 -2,0 z" />
    </g>
    <path
       inkscape:connector-curvature="0"
       style="fill:url(#linearGradient4249)"
       id="path4247"
       d="m 384.57144,503.79797 0,33 48,0 0,-33 -48,0 z" />
    <path
       cx="408.57144"
       cy="519.79797"
       inkscape:connector-curvature="0"
       style="fill:url(#linearGradient4352-8);stroke-linecap:round;stroke-linejoin:round;stroke-width:2"
       id="circle4309-6-3"
       r="9.999989" />
    <path
       inkscape:connector-curvature="0"
       style="stroke-opacity:0.550265;fill:url(#linearGradient4531);stroke-width:2.8"
       id="rect4173-6"
       d="m 380.57143,540.79797 0,2 a 2,2 0 0 0 2,2 l 52,0 a 2,2 0 0 0 2,-2 l 0,-2 -2,0 -52,0 -2,0 z" />
    <rect
       width="47.999989"
       x="384.57144"
       y="532.79797"
       height="3.999983"
       style="fill:#ffffff;fill-opacity:0.784314"
       id="rect4267-5" />
    <circle
       cx="429.57144"
       cy="534.79791"
       style="fill:#4d4d4d"
       id="path4166-70"
       r="1" />
    <path
       inkscape:connector-curvature="0"
       style="fill:#4d4d4d"
       id="rect4183-8"
       d="m 386.57143,533.798 0,1 1,0 0,-1 z m 1,1 0,1 1,0 0,-1 z" />
    <path
       style="fill:#ffffff;fill-opacity:0.78431396"
       d="m 386.57144,505.79803 21,0 0,17 -21,0 z"
       id="rect3432-0"
       inkscape:connector-curvature="0"
       sodipodi:nodetypes="ccccc" />
    <path
       inkscape:connector-curvature="0"
       style="fill:#0f9b71;fill-opacity:1"
       id="rect4160-5"
       d="m 388.57144,507.79797 0,4 4.16667,0 0,-3 -1.04167,0 -1.04166,-1 z" />
    <path
       inkscape:connector-curvature="0"
       style="fill:#ff9955"
       id="rect4235-8"
       d="m 395.57144,507.79797 0,5 4,0 0,-3 -2,-2 z" />
    <path
       inkscape:connector-curvature="0"
       style="fill:#d45500;fill-rule:evenodd"
       id="path4237-5"
       d="m 397.57144,507.79797 2,2 -2,0 z" />
    <path
       inkscape:connector-curvature="0"
       style="fill:#3fba82;fill-opacity:1"
       id="rect4272-6"
       d="m 388.57144,508.79797 5,0 0,4 -5,0 z" />
    <path
       inkscape:connector-curvature="0"
       style="fill:#71c837"
       id="path4275-8"
       d="m 401.57144,507.79797 0,5 4,0 0,-3 -2,-2 z" />
    <path
       inkscape:connector-curvature="0"
       style="fill:#447821;fill-rule:evenodd"
       id="path4277-5"
       d="m 403.57144,507.79797 2,2 -2,0 z" />
    <circle
       cx="384.57144"
       cy="542.79822"
       style="fill:#ffffff;fill-opacity:0.784314;stroke-linecap:round;stroke-linejoin:round;stroke-width:2"
       id="path4292-0"
       r="1" />
    <path
       inkscape:connector-curvature="0"
       style="fill:url(#linearGradient4592);fill-rule:evenodd"
       id="path4584"
       d="m 380.57143,540.79799 56,0 -1.99999,-2 -52,0 -2.00001,2 z" />
    <path
       style="stroke-opacity:0.550265;fill:#0b66cb;stroke-width:2.8"
       id="path4259"
       d="M 4 50 L 4 51 A 2 2 0 0 0 6 53 L 58 53 A 2 2 0 0 0 60 51 L 60 50 A 2 2 0 0 1 58 52 L 6 52 A 2 2 0 0 1 4 50 z "
       transform="matrix(1 0 0 1 376.57144 491.79797)" />
    <path
       d="m 386.57143,533.798 0,1 1,0 0,-1 z m 1,1 0,1 1,0 0,-1 z"
       id="path4214"
       style="fill:#4d4d4d"
       inkscape:connector-curvature="0" />
  </g>
</svg>
