<?xml version="1.0" encoding="UTF-8" standalone="no"?>
<!-- Created with Inkscape (http://www.inkscape.org/) -->

<svg
   xmlns:dc="http://purl.org/dc/elements/1.1/"
   xmlns:cc="http://creativecommons.org/ns#"
   xmlns:rdf="http://www.w3.org/1999/02/22-rdf-syntax-ns#"
   xmlns:svg="http://www.w3.org/2000/svg"
   xmlns="http://www.w3.org/2000/svg"
   xmlns:xlink="http://www.w3.org/1999/xlink"
   xmlns:sodipodi="http://sodipodi.sourceforge.net/DTD/sodipodi-0.dtd"
   xmlns:inkscape="http://www.inkscape.org/namespaces/inkscape"
   width="32"
   version="1.1"
   height="32"
   id="svg2"
   inkscape:version="0.91 r13725"
   sodipodi:docname="preferences-desktop-user-password.svg">
  <sodipodi:namedview
     pagecolor="#ffffff"
     bordercolor="#666666"
     borderopacity="1"
     objecttolerance="10"
     gridtolerance="10"
     guidetolerance="10"
     inkscape:pageopacity="0"
     inkscape:pageshadow="2"
     inkscape:window-width="1920"
     inkscape:window-height="1007"
     id="namedview61"
     showgrid="true"
     inkscape:object-nodes="true"
     inkscape:snap-bbox="true"
     inkscape:bbox-nodes="true"
     inkscape:zoom="20.85965"
     inkscape:cx="24.710178"
     inkscape:cy="27.108546"
     inkscape:window-x="0"
     inkscape:window-y="0"
     inkscape:window-maximized="1"
     inkscape:current-layer="layer1">
    <inkscape:grid
       type="xygrid"
       id="grid4189" />
  </sodipodi:namedview>
  <defs
     id="defs5455">
    <linearGradient
       inkscape:collect="always"
       xlink:href="#linearGradient4303"
       id="linearGradient4346"
       y1="542.79797"
       y2="538.79797"
       x2="0"
       gradientUnits="userSpaceOnUse"
       gradientTransform="matrix(1 0 0 1 -0.00007 2)" />
    <linearGradient
       inkscape:collect="always"
       id="linearGradient4303">
      <stop
         style="stop-color:#c6cdd1"
         id="stop4305" />
      <stop
         offset="1"
         style="stop-color:#e0e5e7"
         id="stop4307" />
    </linearGradient>
    <linearGradient
       inkscape:collect="always"
       xlink:href="#linearGradient4293"
       id="linearGradient4173"
       y1="519.79797"
       x1="393.57144"
       y2="536.79797"
       x2="410.57144"
       gradientUnits="userSpaceOnUse" />
    <linearGradient
       inkscape:collect="always"
       id="linearGradient4293">
      <stop
         id="stop4295" />
      <stop
         offset="1"
         style="stop-opacity:0"
         id="stop4297" />
    </linearGradient>
    <linearGradient
       inkscape:collect="always"
       xlink:href="#linearGradient4159"
       id="linearGradient4338"
       y1="538.79797"
       y2="519.79797"
       x2="0"
       gradientUnits="userSpaceOnUse"
       gradientTransform="matrix(1 0 0 1.2105271 -3.00004 -111.43158)" />
    <linearGradient
       inkscape:collect="always"
       id="linearGradient4159">
      <stop
         style="stop-color:#2a2c2f"
         id="stop4161" />
      <stop
         offset="1"
         style="stop-color:#424649"
         id="stop4163" />
    </linearGradient>
    <linearGradient
       inkscape:collect="always"
       id="linearGradient4219">
      <stop
         style="stop-color:#c3ced7"
         id="stop4221" />
      <stop
         offset="1"
         style="stop-color:#e2f4f4"
         id="stop4223" />
    </linearGradient>
    <linearGradient
       inkscape:collect="always"
       xlink:href="#linearGradient4219"
       id="linearGradient4479"
       y1="533.79797"
       y2="521.79797"
       x2="0"
       gradientUnits="userSpaceOnUse"
       gradientTransform="matrix(1 0 0 1 -384.57143 -515.798)" />
    <linearGradient
       inkscape:collect="always"
       xlink:href="#linearGradient4293"
       id="linearGradient4279"
       y1="4.999974"
       x1="9"
       y2="19"
       x2="23.00003"
       gradientUnits="userSpaceOnUse" />
    <linearGradient
       inkscape:collect="always"
       xlink:href="#linearGradient4697"
       id="linearGradient4703"
       y1="503.798"
       x1="421.37146"
       y2="536.52527"
       x2="421.37146"
       gradientUnits="userSpaceOnUse"
       gradientTransform="matrix(0.91666628,0,0,0.91666628,-340.52366,-455.81464)" />
    <linearGradient
       inkscape:collect="always"
       id="linearGradient4697">
      <stop
         style="stop-color:#2980b9;stop-opacity:1"
         id="stop4699" />
      <stop
         offset="1"
         style="stop-color:#1abc9c;stop-opacity:1"
         id="stop4701" />
    </linearGradient>
  </defs>
  <metadata
     id="metadata5458">
    <rdf:RDF>
      <cc:Work
         rdf:about="">
        <dc:format>image/svg+xml</dc:format>
        <dc:type
           rdf:resource="http://purl.org/dc/dcmitype/StillImage" />
        <dc:title />
      </cc:Work>
    </rdf:RDF>
  </metadata>
  <g
     inkscape:label="Capa 1"
     inkscape:groupmode="layer"
     id="layer1"
     transform="matrix(1 0 0 1 -384.57143 -515.798)">
    <g
       id="g4578"
       transform="matrix(0.62499971,0,0,0.54999974,145.21439,241.70923)">
      <path
         inkscape:connector-curvature="0"
         style="fill:url(#linearGradient4703)"
         id="path4589"
         d="M 12,6 12,36 56,36 56,6 12,6 Z"
         transform="matrix(1.0909096,0,0,1.0909096,371.48052,497.25255)" />
    </g>
    <rect
       width="6"
       x="397.57144"
       y="540.79797"
       height="4"
       style="fill:url(#linearGradient4346)"
       id="rect4321" />
    <rect
       width="12"
       x="394.57144"
       y="544.79797"
       height="1"
       style="fill:#99a1a7"
       id="rect4323" />
    <path
       inkscape:connector-curvature="0"
       style="fill:url(#linearGradient4173);opacity:0.2;fill-rule:evenodd"
       id="path4165"
       d="m 385.57143,536.79801 4,4 27,0 0,-21 -1,-1 0,18 z" />
    <path
       inkscape:connector-curvature="0"
       style="fill:url(#linearGradient4338)"
       id="rect4319"
       d="m 384.57143,517.79801 0,23 32,0 0,-23 -32,0 z m 1,1 30,0 0,18 -30,0 0,-18 z" />
    <flowRoot
       line-height="125%"
       style="font-size:10;font-family:sans-serif"
       id="flowRoot4170"
       transform="matrix(1 0 0 1 389.57142 520.79806)">
      <flowRegion
         id="flowRegion4172">
        <rect
           width="27"
           x="22"
           y="3"
           height="15"
           id="rect4174" />
      </flowRegion>
      <flowPara
         id="flowPara4176">Plasm</flowPara>
    </flowRoot>
    <path
       style="fill:url(#linearGradient4279);opacity:0.2;fill-rule:evenodd"
       id="path4268"
       d="M 16 5 L 16 6 L 15 6 L 14 7 L 13 8 L 13 12 L 11 12 L 11 19 L 17 25 L 27 25 L 32 25 L 32 20 L 18 6 L 16 5 z "
       transform="matrix(1 0 0 1 384.57143 515.798)" />
    <path
       inkscape:connector-curvature="0"
       style="fill:url(#linearGradient4479)"
       id="rect4136-1"
       d="m 16,5 c -1.662,0 -3,1.338 -3,3 l 0,1 0,3 -1,0 -1,0 0,0.75 0,6.25 10,0 0,-7 -2,0 0,-4 C 19,6.338 17.662,5 16,5 Z m 0,1 c 1.2465,0 2,0.5458 2,2 l 0,4 -3,0 -1,0 0,-3 0,-1 c 0,-1.4542 0.75351,-2 2,-2 z m -4,7 8,0 0,5 -8,0 z"
       transform="matrix(1 0 0 1 384.57143 515.798)" />
  </g>
</svg>
