<?xml version="1.0" encoding="UTF-8" standalone="no"?>
<!-- Created with Inkscape (http://www.inkscape.org/) -->

<svg
   xmlns:dc="http://purl.org/dc/elements/1.1/"
   xmlns:cc="http://creativecommons.org/ns#"
   xmlns:rdf="http://www.w3.org/1999/02/22-rdf-syntax-ns#"
   xmlns:svg="http://www.w3.org/2000/svg"
   xmlns="http://www.w3.org/2000/svg"
   xmlns:xlink="http://www.w3.org/1999/xlink"
   xmlns:sodipodi="http://sodipodi.sourceforge.net/DTD/sodipodi-0.dtd"
   xmlns:inkscape="http://www.inkscape.org/namespaces/inkscape"
   width="48"
   version="1.1"
   height="48"
   id="svg2"
   inkscape:version="0.91 r13725"
   sodipodi:docname="kmag.svg">
  <sodipodi:namedview
     pagecolor="#ffffff"
     bordercolor="#666666"
     borderopacity="1"
     objecttolerance="10"
     gridtolerance="10"
     guidetolerance="10"
     inkscape:pageopacity="0"
     inkscape:pageshadow="2"
     inkscape:window-width="1920"
     inkscape:window-height="1007"
     id="namedview49"
     showgrid="true"
     inkscape:snap-bbox="true"
     inkscape:bbox-nodes="true"
     inkscape:zoom="6.9532167"
     inkscape:cx="-1.3562566"
     inkscape:cy="36.64103"
     inkscape:window-x="0"
     inkscape:window-y="0"
     inkscape:window-maximized="1"
     inkscape:current-layer="layer1">
    <inkscape:grid
       type="xygrid"
       id="grid4177" />
  </sodipodi:namedview>
  <defs
     id="defs5455">
    <linearGradient
       inkscape:collect="always"
       id="linearGradient4159">
      <stop
         style="stop-color:#2a2c2f"
         id="stop4161" />
      <stop
         offset="1"
         style="stop-color:#424649"
         id="stop4163" />
    </linearGradient>
    <linearGradient
       inkscape:collect="always"
       xlink:href="#linearGradient4159"
       id="linearGradient4250"
       y1="536.79797"
       y2="503.798"
       x2="0"
       gradientUnits="userSpaceOnUse" />
    <linearGradient
       inkscape:collect="always"
       xlink:href="#linearGradient4303"
       id="linearGradient4272"
       y1="547.79797"
       y2="536.79797"
       x2="0"
       gradientUnits="userSpaceOnUse"
       gradientTransform="matrix(1 0 0 0.54545471 0 243.999)" />
    <linearGradient
       inkscape:collect="always"
       id="linearGradient4303">
      <stop
         style="stop-color:#c6cdd1"
         id="stop4305" />
      <stop
         offset="1"
         style="stop-color:#e0e5e7"
         id="stop4307" />
    </linearGradient>
    <linearGradient
       id="linearGradient4227">
      <stop
         style="stop-color:#2e3436"
         id="stop4229" />
      <stop
         offset="1"
         style="stop-color:#555753"
         id="stop4231" />
    </linearGradient>
    <linearGradient
       inkscape:collect="always"
       xlink:href="#linearGradient4697-8"
       id="linearGradient4249"
       gradientUnits="userSpaceOnUse"
       gradientTransform="matrix(0.91666634,0,0,0.91666615,34.047739,43.983429)"
       x1="419.48053"
       y1="536.52527"
       x2="419.48053"
       y2="503.798" />
    <linearGradient
       inkscape:collect="always"
       id="linearGradient4697-8">
      <stop
         style="stop-color:#1abc9c;stop-opacity:1"
         id="stop4699-9" />
      <stop
         offset="1"
         style="stop-color:#2980b9;stop-opacity:1"
         id="stop4701-4" />
    </linearGradient>
  </defs>
  <metadata
     id="metadata5458">
    <rdf:RDF>
      <cc:Work
         rdf:about="">
        <dc:format>image/svg+xml</dc:format>
        <dc:type
           rdf:resource="http://purl.org/dc/dcmitype/StillImage" />
        <dc:title></dc:title>
      </cc:Work>
    </rdf:RDF>
  </metadata>
  <g
     inkscape:label="Capa 1"
     inkscape:groupmode="layer"
     id="layer1"
     transform="matrix(1 0 0 1 -384.57143 -499.798)">
    <path
       inkscape:connector-curvature="0"
       style="stroke-opacity:0.550265;fill:url(#linearGradient4272);stroke-width:2.8"
       id="rect4254"
       d="m 402.57143,536.798 0,3.81818 0,1.09091 0,1.09091 12,0 0,-1.09091 0,-1.09091 0,-3.81818 z" />
    <rect
       width="48"
       x="384.57144"
       y="503.798"
       height="35.999996"
       style="stroke-opacity:0.550265;fill:url(#linearGradient4250);stroke-width:2.8"
       id="rect4173" />
    <path
       inkscape:connector-curvature="0"
       style="fill:url(#linearGradient4249)"
       id="path4247"
       d="m 386.57143,505.798 0,30 44,0 0,-30 -44,0 z" />
    <rect
       width="22"
       x="397.57144"
       y="541.79797"
       height="1.999947"
       style="stroke-opacity:0.550265;fill:#99a1a7;stroke-width:2.8"
       id="rect4295" />
    <path
       style="fill:#ffffff;stroke-width:0.1"
       id="rect4421"
       d="M 3 7 L 3 8 L 3 12 L 4 12 L 4 8 L 8 8 L 8 7 L 3 7 z M 40 7 L 40 8 L 44 8 L 44 12 L 45 12 L 45 8 L 45 7 L 40 7 z M 22 13 C 18.676 13 16 15.676 16 19 C 16 22.324 18.676 25 22 25 C 23.481208 25 24.830585 24.465318 25.875 23.582031 L 31.292969 29 L 32 28.292969 L 26.582031 22.875 C 27.465317 21.830584 28 20.481203 28 19 C 28 15.676 25.32401 13 22 13 z M 22 14 C 24.77001 14 27 16.23 27 19 C 27 21.77 24.77001 24 22 24 C 19.23 24 17 21.77 17 19 C 17 16.23 19.23 14 22 14 z M 3 30 L 3 34 L 3 35 L 8 35 L 8 34 L 4 34 L 4 30 L 3 30 z M 44 30 L 44 34 L 40 34 L 40 35 L 45 35 L 45 34 L 45 30 L 44 30 z "
       transform="matrix(1 0 0 1 384.57143 499.798)" />
  </g>
</svg>
