<?xml version="1.0" encoding="UTF-8" standalone="no"?>
<!-- Created with Inkscape (http://www.inkscape.org/) -->

<svg
   xmlns:dc="http://purl.org/dc/elements/1.1/"
   xmlns:cc="http://creativecommons.org/ns#"
   xmlns:rdf="http://www.w3.org/1999/02/22-rdf-syntax-ns#"
   xmlns:svg="http://www.w3.org/2000/svg"
   xmlns="http://www.w3.org/2000/svg"
   xmlns:xlink="http://www.w3.org/1999/xlink"
   xmlns:sodipodi="http://sodipodi.sourceforge.net/DTD/sodipodi-0.dtd"
   xmlns:inkscape="http://www.inkscape.org/namespaces/inkscape"
   width="48"
   version="1.1"
   height="48"
   id="svg2"
   inkscape:version="0.91 r13725"
   sodipodi:docname="spectacle.svg">
  <sodipodi:namedview
     pagecolor="#ffffff"
     bordercolor="#666666"
     borderopacity="1"
     objecttolerance="10"
     gridtolerance="10"
     guidetolerance="10"
     inkscape:pageopacity="0"
     inkscape:pageshadow="2"
     inkscape:window-width="1920"
     inkscape:window-height="1007"
     id="namedview46"
     showgrid="true"
     inkscape:snap-bbox="true"
     inkscape:bbox-nodes="true"
     inkscape:zoom="4.9166667"
     inkscape:cx="70.231769"
     inkscape:cy="24.991727"
     inkscape:window-x="0"
     inkscape:window-y="0"
     inkscape:window-maximized="1"
     inkscape:current-layer="layer1">
    <inkscape:grid
       type="xygrid"
       id="grid4188" />
  </sodipodi:namedview>
  <defs
     id="defs5455">
    <linearGradient
       inkscape:collect="always"
       id="linearGradient4159">
      <stop
         style="stop-color:#2a2c2f"
         id="stop4161" />
      <stop
         offset="1"
         style="stop-color:#424649"
         id="stop4163" />
    </linearGradient>
    <linearGradient
       inkscape:collect="always"
       xlink:href="#linearGradient4159"
       id="linearGradient4250"
       y1="536.79797"
       y2="503.798"
       x2="0"
       gradientUnits="userSpaceOnUse" />
    <linearGradient
       inkscape:collect="always"
       xlink:href="#linearGradient4303"
       id="linearGradient4272"
       y1="547.79797"
       y2="536.79797"
       x2="0"
       gradientUnits="userSpaceOnUse"
       gradientTransform="matrix(1 0 0 0.54545458 0 243.99907)" />
    <linearGradient
       inkscape:collect="always"
       id="linearGradient4303">
      <stop
         style="stop-color:#c6cdd1"
         id="stop4305" />
      <stop
         offset="1"
         style="stop-color:#e0e5e7"
         id="stop4307" />
    </linearGradient>
    <linearGradient
       inkscape:collect="always"
       xlink:href="#linearGradient4697-8"
       id="linearGradient4249"
       gradientUnits="userSpaceOnUse"
       gradientTransform="matrix(0.91666634,0,0,0.91666615,34.047738,43.983427)"
       x1="420.57144"
       y1="536.52527"
       x2="420.57144"
       y2="503.798" />
    <linearGradient
       inkscape:collect="always"
       id="linearGradient4697-8">
      <stop
         style="stop-color:#1abc9c;stop-opacity:1"
         id="stop4699-9" />
      <stop
         offset="1"
         style="stop-color:#2980b9;stop-opacity:1"
         id="stop4701-4" />
    </linearGradient>
  </defs>
  <metadata
     id="metadata5458">
    <rdf:RDF>
      <cc:Work
         rdf:about="">
        <dc:format>image/svg+xml</dc:format>
        <dc:type
           rdf:resource="http://purl.org/dc/dcmitype/StillImage" />
        <dc:title />
      </cc:Work>
    </rdf:RDF>
  </metadata>
  <g
     inkscape:label="Capa 1"
     inkscape:groupmode="layer"
     id="layer1"
     transform="matrix(1 0 0 1 -384.57143 -499.798)">
    <path
       inkscape:connector-curvature="0"
       style="stroke-opacity:0.550265;fill:url(#linearGradient4272);stroke-width:2.8"
       id="rect4254"
       d="m 402.57143,536.798 0,3.81819 0,1.0909 0,1.09091 12,0 0,-1.09091 0,-1.0909 0,-3.81819 z" />
    <rect
       width="48"
       x="384.57144"
       y="503.798"
       height="35.999996"
       style="stroke-opacity:0.550265;fill:url(#linearGradient4250);stroke-width:2.8"
       id="rect4173" />
    <path
       inkscape:connector-curvature="0"
       style="fill:url(#linearGradient4249)"
       id="path4247"
       d="m 386.57143,505.798 0,30 44,0 0,-30 -44,0 z" />
    <rect
       width="22"
       x="397.57144"
       y="541.79797"
       height="1.999947"
       style="stroke-opacity:0.550265;fill:#99a1a7;stroke-width:2.8"
       id="rect4295" />
    <path
       inkscape:connector-curvature="0"
       style="fill:#ffffff;stroke-width:0.1"
       id="rect4421-3"
       d="m 387.57143,506.798 0,1 0,4 1,0 0,-4 4,0 0,-1 -5,0 z m 37,0 0,1 4,0 0,4 1,0 0,-4 0,-1 -5,0 z m -18,7 0,3 -2,0 0,11 13,0 0,-11 -2,0 0,-3 -9,0 z m 1,1 7,0 0,2 -7,0 0,-2 z m -8,2 0,11 4,0 0,-11 -4,0 z m 11.5,1 c 2.493,0 4.5,2.007 4.5,4.5 0,2.493 -2.007,4.5 -4.5,4.5 -2.493,0 -4.5,-2.007 -4.5,-4.5 0,-2.493 2.007,-4.5 4.5,-4.5 z m 0,1 c -1.939,0 -3.5,1.561 -3.5,3.5 0,1.939 1.561,3.5 3.5,3.5 1.939,0 3.5,-1.561 3.5,-3.5 0,-1.939 -1.561,-3.5 -3.5,-3.5 z m -23.5,11 0,4 0,1 5,0 0,-1 -4,0 0,-4 -1,0 z m 41,0 0,4 -4,0 0,1 5,0 0,-1 0,-4 -1,0 z" />
  </g>
</svg>
