<?xml version="1.0" encoding="UTF-8" standalone="no"?>
<!-- Created with Inkscape (http://www.inkscape.org/) -->

<svg
   xmlns:dc="http://purl.org/dc/elements/1.1/"
   xmlns:cc="http://creativecommons.org/ns#"
   xmlns:rdf="http://www.w3.org/1999/02/22-rdf-syntax-ns#"
   xmlns:svg="http://www.w3.org/2000/svg"
   xmlns="http://www.w3.org/2000/svg"
   xmlns:xlink="http://www.w3.org/1999/xlink"
   xmlns:sodipodi="http://sodipodi.sourceforge.net/DTD/sodipodi-0.dtd"
   xmlns:inkscape="http://www.inkscape.org/namespaces/inkscape"
   width="48"
   version="1.1"
   height="48"
   id="svg2"
   inkscape:version="0.91 r13725"
   sodipodi:docname="plasmadiscover.svg">
  <sodipodi:namedview
     pagecolor="#ffffff"
     bordercolor="#666666"
     borderopacity="1"
     objecttolerance="10"
     gridtolerance="10"
     guidetolerance="10"
     inkscape:pageopacity="0"
     inkscape:pageshadow="2"
     inkscape:window-width="1920"
     inkscape:window-height="1007"
     id="namedview46"
     showgrid="true"
     inkscape:zoom="2"
     inkscape:cx="-187.6004"
     inkscape:cy="-14.498944"
     inkscape:window-x="0"
     inkscape:window-y="0"
     inkscape:window-maximized="1"
     inkscape:current-layer="layer1"
     inkscape:snap-bbox="true"
     inkscape:bbox-nodes="true"
     inkscape:object-nodes="true">
    <inkscape:grid
       type="xygrid"
       id="grid4172"
       visible="false" />
  </sodipodi:namedview>
  <defs
     id="defs5455">
    <linearGradient
       id="linearGradient4225"
       inkscape:collect="always">
      <stop
         id="stop4227"
         style="stop-color:#9ffbe7;stop-opacity:1" />
      <stop
         id="stop4230"
         style="stop-color:#effaff;stop-opacity:1"
         offset="1" />
    </linearGradient>
    <linearGradient
       id="linearGradient4175"
       inkscape:collect="always">
      <stop
         id="stop4177"
         style="stop-color:#16a085;stop-opacity:1" />
      <stop
         id="stop4179"
         style="stop-color:#2ecc71;stop-opacity:1"
         offset="1" />
    </linearGradient>
    <linearGradient
       inkscape:collect="always"
       id="linearGradient4438">
      <stop
         style="stop-opacity:0"
         id="stop4440" />
      <stop
         offset="1"
         id="stop4442" />
    </linearGradient>
    <linearGradient
       inkscape:collect="always"
       xlink:href="#linearGradient4175"
       id="linearGradient4158"
       y1="543.79797"
       y2="513.79797"
       x2="0"
       gradientUnits="userSpaceOnUse"
       gradientTransform="matrix(1.1250015 0 0 1 -51.07197 0)" />
    <linearGradient
       inkscape:collect="always"
       xlink:href="#linearGradient4175"
       id="linearGradient4205"
       y1="43.999973"
       y2="11"
       x2="0"
       gradientUnits="userSpaceOnUse" />
    <linearGradient
       inkscape:collect="always"
       id="linearGradient4159-7">
      <stop
         style="stop-color:#1d1e1e;stop-opacity:1"
         id="stop4161-4" />
      <stop
         offset="1"
         style="stop-color:#44484c"
         id="stop4163-9" />
    </linearGradient>
    <linearGradient
       inkscape:collect="always"
       xlink:href="#linearGradient4159-7"
       id="linearGradient4302"
       y1="10"
       y2="14"
       x2="0"
       gradientUnits="userSpaceOnUse" />
    <linearGradient
       inkscape:collect="always"
       xlink:href="#linearGradient4175"
       id="linearGradient4174"
       y1="14"
       y2="10"
       gradientUnits="userSpaceOnUse"
       x2="0" />
    <linearGradient
       inkscape:collect="always"
       xlink:href="#linearGradient4175"
       id="linearGradient4187"
       y1="516.79797"
       y2="503.798"
       x2="0"
       gradientUnits="userSpaceOnUse" />
    <linearGradient
       inkscape:collect="always"
       id="linearGradient4303">
      <stop
         style="stop-color:#c6cdd1"
         id="stop4305" />
      <stop
         offset="1"
         style="stop-color:#e0e5e7"
         id="stop4307" />
    </linearGradient>
    <linearGradient
       inkscape:collect="always"
       xlink:href="#linearGradient4303"
       id="linearGradient4282"
       y1="17.999973"
       y2="15"
       x2="0"
       gradientUnits="userSpaceOnUse" />
    <linearGradient
       inkscape:collect="always"
       xlink:href="#linearGradient4303"
       id="linearGradient4290"
       y1="517.79797"
       y2="514.79797"
       x2="0"
       gradientUnits="userSpaceOnUse" />
    <linearGradient
       inkscape:collect="always"
       xlink:href="#linearGradient4438"
       id="linearGradient4444"
       y1="1049.3622"
       y2="1033.3622"
       x2="0"
       gradientUnits="userSpaceOnUse"
       gradientTransform="matrix(1 0 0 1 0 -2.00004)" />
    <linearGradient
       inkscape:collect="always"
       id="linearGradient4227">
      <stop
         style="stop-color:#292c2f"
         id="stop4229" />
      <stop
         offset="1"
         style="stop-opacity:0"
         id="stop4231" />
    </linearGradient>
    <linearGradient
       inkscape:collect="always"
       xlink:href="#linearGradient4225"
       id="linearGradient4223"
       x1="417.57144"
       y1="536.79797"
       x2="417.57144"
       y2="520.79797"
       gradientUnits="userSpaceOnUse" />
    <linearGradient
       inkscape:collect="always"
       xlink:href="#linearGradient4227"
       id="linearGradient4241"
       x1="399.57144"
       y1="522.79797"
       x2="416.57144"
       y2="538.79797"
       gradientUnits="userSpaceOnUse" />
  </defs>
  <metadata
     id="metadata5458">
    <rdf:RDF>
      <cc:Work
         rdf:about="">
        <dc:format>image/svg+xml</dc:format>
        <dc:type
           rdf:resource="http://purl.org/dc/dcmitype/StillImage" />
        <dc:title></dc:title>
      </cc:Work>
    </rdf:RDF>
  </metadata>
  <g
     inkscape:label="Capa 1"
     inkscape:groupmode="layer"
     id="layer1"
     transform="matrix(1 0 0 1 -384.57143 -499.798)">
    <path
       style="fill:url(#linearGradient4205);fill-rule:evenodd;fill-opacity:1.0"
       id="path4194"
       d="M 9 11 L 9 13 L 10 12 L 9 11 z M 39 11 L 38 12 L 39 13 L 39 11 z "
       transform="matrix(1 0 0 1 384.57143 499.798)" />
    <rect
       width="36"
       x="390.57144"
       y="513.79797"
       rx="0"
       height="29.999973"
       style="fill:url(#linearGradient4158)"
       id="rect4139" />
    <rect
       width="35.999992"
       x="390.57144"
       y="542.79797"
       height="0.999974"
       style="fill:#128269;fill-opacity:1"
       id="rect4171" />
    <path
       style="fill:url(#linearGradient4174);fill-rule:evenodd;fill-opacity:1.0"
       id="path4172"
       d="M 10 10 L 9 11 L 10 12 L 6 14 L 24 14 L 42 14 L 38 12 L 39 11 L 38 10 L 24 10 L 10 10 z "
       transform="matrix(1 0 0 1 384.57143 499.798)" />
    <path
       style="fill:url(#linearGradient4302);opacity:0.6;fill-rule:evenodd"
       id="path4183"
       d="M 10 10 L 9 11 L 10 12 L 6 14 L 24 14 L 42 14 L 38 12 L 39 11 L 38 10 L 24 10 L 10 10 z "
       transform="matrix(1 0 0 1 384.57143 499.798)" />
    <path
       style="opacity:0.2"
       id="rect4176"
       d="M 10 10 L 9 11 L 39 11 L 38 10 L 24 10 L 10 10 z "
       transform="matrix(1 0 0 1 384.57143 499.798)" />
    <path
       inkscape:connector-curvature="0"
       style="fill:url(#linearGradient4187);fill-opacity:1.0"
       id="rect4304"
       d="m 400.57143,516.798 0,-5 c 0,-4.432 3.568,-8 8,-8 4.432,0 8,3.568 8,8 l 0,5 -1,0 0,-5 c 0,-3.878 -3.122,-7 -7,-7 -3.878,0 -7,3.122 -7,7 l 0,5 z" />
    <path
       inkscape:connector-curvature="0"
       style="fill:url(#linearGradient4290)"
       id="path4189"
       d="m 401.07143,514.798 a 1.5000002,1.5000002 0 0 1 1.5,1.5 1.5000002,1.5000002 0 0 1 -1.5,1.5 1.5000002,1.5000002 0 0 1 -1.5,-1.5 1.5000002,1.5000002 0 0 1 1.5,-1.5 z m 0,1 a 0.50000024,0.50000024 0 0 0 -0.5,0.5 0.50000024,0.50000024 0 0 0 0.5,0.5 0.50000024,0.50000024 0 0 0 0.5,-0.5 0.50000024,0.50000024 0 0 0 -0.5,-0.5 z" />
    <path
       style="fill:url(#linearGradient4282)"
       id="circle4191"
       d="M 31.5 15 A 1.5000002 1.5000002 0 0 0 30 16.5 A 1.5000002 1.5000002 0 0 0 31.5 18 A 1.5000002 1.5000002 0 0 0 33 16.5 A 1.5000002 1.5000002 0 0 0 31.5 15 z M 31.5 16 A 0.50000024 0.50000024 0 0 1 32 16.5 A 0.50000024 0.50000024 0 0 1 31.5 17 A 0.50000024 0.50000024 0 0 1 31 16.5 A 0.50000024 0.50000024 0 0 1 31.5 16 z "
       transform="matrix(1 0 0 1 384.57143 499.798)" />
    <path
       style="opacity:0.2;fill:url(#linearGradient4241);fill-opacity:1;stroke:none;stroke-width:3;stroke-miterlimit:4;stroke-dasharray:none;stroke-opacity:1"
       d="m 415.42892,525.34939 11.14251,11.44861 10e-6,6.99997 -16.00001,3e-5 -7,-7.70562 z"
       id="rect4232"
       inkscape:connector-curvature="0"
       sodipodi:nodetypes="cccccc" />
    <path
       style="fill:url(#linearGradient4223);fill-opacity:1.0;stroke:none;stroke-width:3;stroke-miterlimit:4;stroke-dasharray:none;stroke-opacity:1"
       d="m 404.28006,524.79694 a 8,8 0 0 0 -0.71074,11.29137 8,8 0 0 0 11.29137,0.71074 l -5.29031,-6.00106 6.00105,-5.29031 a 8,8 0 0 0 -11.29136,-0.71074 z"
       id="path4212"
       inkscape:connector-curvature="0" />
  </g>
</svg>
