<?xml version="1.0" encoding="UTF-8" standalone="no"?>
<!-- Created with Inkscape (http://www.inkscape.org/) -->

<svg
   xmlns:dc="http://purl.org/dc/elements/1.1/"
   xmlns:cc="http://creativecommons.org/ns#"
   xmlns:rdf="http://www.w3.org/1999/02/22-rdf-syntax-ns#"
   xmlns:svg="http://www.w3.org/2000/svg"
   xmlns="http://www.w3.org/2000/svg"
   xmlns:xlink="http://www.w3.org/1999/xlink"
   xmlns:sodipodi="http://sodipodi.sourceforge.net/DTD/sodipodi-0.dtd"
   xmlns:inkscape="http://www.inkscape.org/namespaces/inkscape"
   width="64"
   version="1.1"
   height="64"
   id="svg2"
   inkscape:version="0.91 r13725"
   sodipodi:docname="user-desktop.svg">
  <metadata
     id="metadata44">
    <rdf:RDF>
      <cc:Work
         rdf:about="">
        <dc:format>image/svg+xml</dc:format>
        <dc:type
           rdf:resource="http://purl.org/dc/dcmitype/StillImage" />
        <dc:title />
      </cc:Work>
    </rdf:RDF>
  </metadata>
  <sodipodi:namedview
     pagecolor="#ffffff"
     bordercolor="#666666"
     borderopacity="1"
     objecttolerance="10"
     gridtolerance="10"
     guidetolerance="10"
     inkscape:pageopacity="0"
     inkscape:pageshadow="2"
     inkscape:window-width="1920"
     inkscape:window-height="1007"
     id="namedview42"
     showgrid="true"
     inkscape:object-nodes="true"
     inkscape:zoom="10.429825"
     inkscape:cx="33.704191"
     inkscape:cy="36.403023"
     inkscape:window-x="0"
     inkscape:window-y="0"
     inkscape:window-maximized="1"
     inkscape:current-layer="layer1"
     inkscape:snap-bbox="true"
     inkscape:bbox-nodes="true"
     inkscape:object-paths="true">
    <inkscape:grid
       type="xygrid"
       id="grid4181" />
  </sodipodi:namedview>
  <defs
     id="defs5455">
    <linearGradient
       inkscape:collect="always"
       id="linearGradient4697">
      <stop
         style="stop-color:#1abc9c;stop-opacity:1"
         id="stop4699" />
      <stop
         offset="1"
         style="stop-color:#2980b9;stop-opacity:1"
         id="stop4701" />
    </linearGradient>
    <linearGradient
       inkscape:collect="always"
       xlink:href="#linearGradient4697"
       id="linearGradient4249"
       gradientUnits="userSpaceOnUse"
       gradientTransform="matrix(1.2083329,0,0,1.588888,-77.118887,-310.68059)"
       x1="419.33005"
       y1="536.52533"
       x2="419.33008"
       y2="503.798" />
  </defs>
  <g
     inkscape:label="Capa 1"
     inkscape:groupmode="layer"
     id="layer1"
     transform="matrix(1 0 0 1 -384.57143 -483.798)">
    <path
       inkscape:connector-curvature="0"
       style="fill:url(#linearGradient4249)"
       id="path4247"
       d="m 387.57143,489.798 0,52 58,0 0,-52 -58,0 z" />
    <g
       id="g4255">
      <path
         inkscape:connector-curvature="0"
         style="fill:#ffffff;fill-opacity:0.78431396"
         id="rect4128"
         d="m 387.57143,537.798 0,3.2 0,0.8 1,0 56,0 1,0 0,-0.8 0,-3.2 -58,0 z" />
      <path
         d="m 389.57143,538.798 0,1 1,0 0,-1 z m 1,1 0,1 1,0 0,-1 z"
         id="path4214"
         style="fill:#4d4d4d"
         inkscape:connector-curvature="0" />
    </g>
    <path
       style="fill:#ffffff;fill-opacity:0.78431396"
       d="m 389.57147,491.79803 20.99996,-3e-5 0,17 -20.99996,3e-5 z"
       id="rect3432-0"
       inkscape:connector-curvature="0"
       sodipodi:nodetypes="ccccc" />
    <path
       inkscape:connector-curvature="0"
       style="fill:#0f9b71;fill-opacity:1"
       id="rect4160-5"
       d="m 391.57143,493.798 0,4 4.16667,0 0,-3 -1.04167,0 -1.04166,-1 z" />
    <path
       inkscape:connector-curvature="0"
       style="fill:#ff9955"
       id="rect4235-8"
       d="m 398.57143,493.798 0,5 4,0 0,-3 -2,-2 z" />
    <path
       inkscape:connector-curvature="0"
       style="fill:#d45500;fill-rule:evenodd"
       id="path4237-5"
       d="m 400.57143,493.798 2,2 -2,0 z" />
    <path
       inkscape:connector-curvature="0"
       style="fill:#3fba82;fill-opacity:1"
       id="rect4272-6"
       d="m 391.57143,494.798 5,0 0,4 -5,0 z" />
    <path
       inkscape:connector-curvature="0"
       style="fill:#71c837"
       id="path4275-8"
       d="m 404.57143,493.798 0,5 4,0 0,-3 -2,-2 z" />
    <path
       inkscape:connector-curvature="0"
       style="fill:#447821;fill-rule:evenodd"
       id="path4277-5"
       d="m 406.57143,493.798 2,2 -2,0 z" />
    <rect
       style="fill:#ffffff;fill-opacity:0.78431373;stroke:none;stroke-width:3;stroke-miterlimit:4;stroke-dasharray:none;stroke-opacity:1"
       id="rect4167"
       width="21.000011"
       height="8.0000267"
       x="422.57144"
       y="527.79797" />
    <rect
       style="fill:#000000;fill-opacity:0.09803922;stroke:none;stroke-width:3;stroke-miterlimit:4;stroke-dasharray:none;stroke-opacity:1"
       id="rect4169"
       width="17.000011"
       height="1"
       x="424.57144"
       y="529.79797"
       ry="0.5"
       rx="0" />
    <rect
       style="fill:#1abc9c;fill-opacity:1;stroke:none;stroke-width:3;stroke-miterlimit:4;stroke-dasharray:none;stroke-opacity:1"
       id="rect4173"
       width="8.9999886"
       height="1"
       x="424.57144"
       y="529.79797"
       rx="0"
       ry="0.5" />
    <rect
       rx="0"
       ry="0.5"
       y="532.79797"
       x="424.57144"
       height="1"
       width="17"
       id="rect4175"
       style="fill:#000000;fill-opacity:0.09803922;stroke:none;stroke-width:3;stroke-miterlimit:4;stroke-dasharray:none;stroke-opacity:1" />
    <rect
       ry="0.5"
       rx="0"
       y="532.79797"
       x="424.57144"
       height="1"
       width="12.999989"
       id="rect4177"
       style="fill:#1abc9c;fill-opacity:1;stroke:none;stroke-width:3;stroke-miterlimit:4;stroke-dasharray:none;stroke-opacity:1" />
    <circle
       cx="442.57144"
       cy="539.79797"
       style="fill:#4d4d4d"
       id="path4166-70"
       r="1" />
  </g>
</svg>
